# xmcd
#
# Track frame offsets: 
#        150
#        12698
#        33645
#        44793
#        63455
#        74996
#        91471
#        108346
#        126560
#        140161
#        155508
#        169919
#
# Disc length: 2466 seconds
#
# Revision: 0
# Processed by: cddbd v1.5.2PL0 Copyright (c) Steve Scherf et al.
# Submitted via: ExactAudioCopy v0.95b4
#
DISCID=c609a00c
DTITLE=Mel McDaniel - The Last Ride
DYEAR=2011
DGENRE=Country
TTITLE0=Baby's Got Her Blue Jeans On
TTITLE1=My Plastic Girl
TTITLE2=Stand Up
TTITLE3=Help Me Make It Through the Night
TTITLE4=Roll Your Own
TTITLE5=The Grandest Lady of Them All
TTITLE6=Chain Smokin'
TTITLE7=The Last Ride
TTITLE8=Dam the Loser
TTITLE9=Like a Motel 6
TTITLE10=Sugar Mountain
TTITLE11=The Gunfighter
EXTD=
EXTT0=
EXTT1=
EXTT2=
EXTT3=
EXTT4=
EXTT5=
EXTT6=
EXTT7=
EXTT8=
EXTT9=
EXTT10=
EXTT11=
PLAYORDER=
